<?xml version="1.0" encoding="UTF-8"?>
<svg width="19px" height="14px" viewBox="0 0 19 14" version="1.1" xmlns="http://www.w3.org/2000/svg" xmlns:xlink="http://www.w3.org/1999/xlink">
    <!-- Generator: sketchtool 58 (101010) - https://sketch.com -->
    <title>BCB97932-FC08-40F3-B850-855FA924779B</title>
    <desc>Created with sketchtool.</desc>
    <g id="Page-1" stroke="none" stroke-width="1" fill="none" fill-rule="evenodd">
        <g id="UI-Kit-module-5" transform="translate(-136.000000, -1207.000000)" fill="#FFFFFF" fill-rule="nonzero">
            <g id="Checkboxes" transform="translate(130.000000, 960.000000)">
                <g id="Checked" transform="translate(0.000000, 239.000000)">
                    <path d="M24.6567802,9.93259586 L22.9897136,8.32992116 C22.7611295,8.11000124 22.4831276,8 22.156352,8 C21.8292758,8 21.551274,8.11000124 21.3226899,8.32992116 L13.2812874,16.0723986 L9.67739577,12.5959054 C9.44855408,12.3759029 9.17072396,12.2660255 8.84394833,12.2660255 C8.51695803,12.2660255 8.23912791,12.3759029 8.01028622,12.5959054 L6.3432196,14.1986214 C6.11437791,14.4185826 6,14.6857638 6,15.0000826 C6,15.3141536 6.11437791,15.5815825 6.3432196,15.8015025 L10.7805587,20.0673629 L12.4477541,21.6700376 C12.676467,21.8901226 12.954383,22 13.2812874,22 C13.6080631,22 13.885979,21.8898337 14.1148207,21.6700376 L15.7819732,20.0673629 L24.6567802,11.5353944 C24.8854072,11.3153919 25,11.048252 25,10.7339332 C25,10.4197796 24.8854072,10.1525983 24.6567802,9.93259586 Z" id="Path-1"></path>
                </g>
            </g>
        </g>
    </g>
</svg>