<?xml version="1.0" encoding="UTF-8"?>
<svg width="19px" height="14px" viewBox="0 0 19 14" version="1.1" xmlns="http://www.w3.org/2000/svg" xmlns:xlink="http://www.w3.org/1999/xlink">
    <!-- Generator: sketchtool 58 (101010) - https://sketch.com -->
    <title>546FB9A6-C53B-4D59-89DC-25AC0E07586B</title>
    <desc>Created with sketchtool.</desc>
    <g id="Page-1" stroke="none" stroke-width="1" fill="none" fill-rule="evenodd" fill-opacity="0.59">
        <g id="UI-Kit-module-5" transform="translate(-136.000000, -1264.000000)" fill="#FFFFFF" fill-rule="nonzero">
            <g id="Checkboxes" transform="translate(130.000000, 960.000000)">
                <g id="Checked" transform="translate(0.000000, 239.000000)">
                    <path d="M24.6567802,66.9325959 L22.9897136,65.3299212 C22.7611295,65.1100012 22.4831276,65 22.156352,65 C21.8292758,65 21.551274,65.1100012 21.3226899,65.3299212 L13.2812874,73.0723986 L9.67739577,69.5959054 C9.44855408,69.3759029 9.17072396,69.2660255 8.84394833,69.2660255 C8.51695803,69.2660255 8.23912791,69.3759029 8.01028622,69.5959054 L6.3432196,71.1986214 C6.11437791,71.4185826 6,71.6857638 6,72.0000826 C6,72.3141536 6.11437791,72.5815825 6.3432196,72.8015025 L10.7805587,77.0673629 L12.4477541,78.6700376 C12.676467,78.8901226 12.954383,79 13.2812874,79 C13.6080631,79 13.885979,78.8898337 14.1148207,78.6700376 L15.7819732,77.0673629 L24.6567802,68.5353944 C24.8854072,68.3153919 25,68.048252 25,67.7339332 C25,67.4197796 24.8854072,67.1525983 24.6567802,66.9325959 Z" id="Path-3"></path>
                </g>
            </g>
        </g>
    </g>
</svg>